<mxfile host="app.diagrams.net" modified="2022-06-06T11:20:16.778Z" agent="5.0 (Windows NT 10.0; Win64; x64) AppleWebKit/537.36 (KHTML, like Gecko) Chrome/92.0.4515.107 Safari/537.36" etag="qeVQYXF83lTOhOPo10jF" version="18.1.1" type="github" pages="3">
  <diagram id="ptp67WGAlMmkJpW8HmmZ" name="总体框架">
    <mxGraphModel dx="1102" dy="614" grid="1" gridSize="10" guides="1" tooltips="1" connect="1" arrows="1" fold="1" page="1" pageScale="1" pageWidth="827" pageHeight="1169" math="0" shadow="0">
      <root>
        <mxCell id="0" />
        <mxCell id="1" parent="0" />
        <mxCell id="SE9L8p6Hpd7SmOYz5tzZ-1" value="" style="edgeStyle=orthogonalEdgeStyle;rounded=0;orthogonalLoop=1;jettySize=auto;html=1;" parent="1" source="xqa65PXLp3XcG8kXNGzn-1" target="xqa65PXLp3XcG8kXNGzn-2" edge="1">
          <mxGeometry relative="1" as="geometry" />
        </mxCell>
        <mxCell id="xqa65PXLp3XcG8kXNGzn-1" value="UMS" style="rounded=1;whiteSpace=wrap;html=1;fillColor=#e1d5e7;strokeColor=#9673a6;" parent="1" vertex="1">
          <mxGeometry x="140" y="150" width="120" height="60" as="geometry" />
        </mxCell>
        <mxCell id="SE9L8p6Hpd7SmOYz5tzZ-2" value="" style="edgeStyle=orthogonalEdgeStyle;rounded=0;orthogonalLoop=1;jettySize=auto;html=1;" parent="1" source="xqa65PXLp3XcG8kXNGzn-2" target="xqa65PXLp3XcG8kXNGzn-3" edge="1">
          <mxGeometry relative="1" as="geometry" />
        </mxCell>
        <mxCell id="xqa65PXLp3XcG8kXNGzn-2" value="WBA Client" style="rounded=1;whiteSpace=wrap;html=1;fillColor=#e1d5e7;strokeColor=#9673a6;" parent="1" vertex="1">
          <mxGeometry x="320" y="150" width="120" height="60" as="geometry" />
        </mxCell>
        <mxCell id="xqa65PXLp3XcG8kXNGzn-3" value="WA&amp;nbsp; Server" style="rounded=1;whiteSpace=wrap;html=1;fillColor=#fff2cc;strokeColor=#d6b656;" parent="1" vertex="1">
          <mxGeometry x="490" y="150" width="120" height="60" as="geometry" />
        </mxCell>
        <mxCell id="SE9L8p6Hpd7SmOYz5tzZ-3" value="Portal Web" style="rounded=1;whiteSpace=wrap;html=1;fillColor=#f8cecc;strokeColor=#b85450;" parent="1" vertex="1">
          <mxGeometry x="80" y="440" width="90" height="50" as="geometry" />
        </mxCell>
        <mxCell id="SE9L8p6Hpd7SmOYz5tzZ-4" value="Rest API" style="rounded=1;whiteSpace=wrap;html=1;fillColor=#f8cecc;strokeColor=#b85450;" parent="1" vertex="1">
          <mxGeometry x="80" y="550" width="90" height="50" as="geometry" />
        </mxCell>
        <mxCell id="SE9L8p6Hpd7SmOYz5tzZ-5" value="内部&lt;br&gt;核心业务处理" style="rounded=1;whiteSpace=wrap;html=1;fillColor=#f8cecc;strokeColor=#b85450;" parent="1" vertex="1">
          <mxGeometry x="220" y="440" width="80" height="160" as="geometry" />
        </mxCell>
        <mxCell id="SE9L8p6Hpd7SmOYz5tzZ-6" value="各通道&lt;br&gt;sender模块" style="rounded=1;whiteSpace=wrap;html=1;fillColor=#f8cecc;strokeColor=#b85450;" parent="1" vertex="1">
          <mxGeometry x="360" y="440" width="80" height="160" as="geometry" />
        </mxCell>
        <mxCell id="SE9L8p6Hpd7SmOYz5tzZ-8" value="whatsapp" style="rounded=1;whiteSpace=wrap;html=1;fillColor=#e1d5e7;strokeColor=#9673a6;" parent="1" vertex="1">
          <mxGeometry x="550" y="340" width="70" height="30" as="geometry" />
        </mxCell>
        <mxCell id="SE9L8p6Hpd7SmOYz5tzZ-9" value="wechat" style="rounded=1;whiteSpace=wrap;html=1;fillColor=#e1d5e7;strokeColor=#9673a6;" parent="1" vertex="1">
          <mxGeometry x="550" y="390" width="70" height="30" as="geometry" />
        </mxCell>
        <mxCell id="SE9L8p6Hpd7SmOYz5tzZ-13" value="email" style="rounded=1;whiteSpace=wrap;html=1;fillColor=#e1d5e7;strokeColor=#9673a6;" parent="1" vertex="1">
          <mxGeometry x="550" y="440" width="70" height="30" as="geometry" />
        </mxCell>
        <mxCell id="SE9L8p6Hpd7SmOYz5tzZ-14" value="sms" style="rounded=1;whiteSpace=wrap;html=1;fillColor=#e1d5e7;strokeColor=#9673a6;" parent="1" vertex="1">
          <mxGeometry x="550" y="490" width="70" height="30" as="geometry" />
        </mxCell>
        <mxCell id="SE9L8p6Hpd7SmOYz5tzZ-15" value="……" style="rounded=1;whiteSpace=wrap;html=1;fillColor=#e1d5e7;strokeColor=#9673a6;" parent="1" vertex="1">
          <mxGeometry x="550" y="540" width="70" height="30" as="geometry" />
        </mxCell>
        <mxCell id="SE9L8p6Hpd7SmOYz5tzZ-34" value="" style="edgeStyle=orthogonalEdgeStyle;shape=flexArrow;rounded=0;orthogonalLoop=1;jettySize=auto;html=1;" parent="1" source="SE9L8p6Hpd7SmOYz5tzZ-17" target="SE9L8p6Hpd7SmOYz5tzZ-18" edge="1">
          <mxGeometry relative="1" as="geometry" />
        </mxCell>
        <mxCell id="SE9L8p6Hpd7SmOYz5tzZ-17" value="" style="rounded=0;whiteSpace=wrap;html=1;dashed=1;fillColor=none;" parent="1" vertex="1">
          <mxGeometry x="75" y="350" width="100" height="320" as="geometry" />
        </mxCell>
        <mxCell id="SE9L8p6Hpd7SmOYz5tzZ-43" value="" style="edgeStyle=orthogonalEdgeStyle;shape=flexArrow;rounded=0;orthogonalLoop=1;jettySize=auto;html=1;" parent="1" source="SE9L8p6Hpd7SmOYz5tzZ-18" target="SE9L8p6Hpd7SmOYz5tzZ-19" edge="1">
          <mxGeometry relative="1" as="geometry" />
        </mxCell>
        <mxCell id="SE9L8p6Hpd7SmOYz5tzZ-18" value="" style="rounded=0;whiteSpace=wrap;html=1;dashed=1;fillColor=none;" parent="1" vertex="1">
          <mxGeometry x="210" y="350" width="100" height="320" as="geometry" />
        </mxCell>
        <mxCell id="SE9L8p6Hpd7SmOYz5tzZ-19" value="" style="rounded=0;whiteSpace=wrap;html=1;dashed=1;fillColor=none;" parent="1" vertex="1">
          <mxGeometry x="350" y="350" width="100" height="320" as="geometry" />
        </mxCell>
        <mxCell id="SE9L8p6Hpd7SmOYz5tzZ-25" value="业务逻辑处理" style="text;html=1;resizable=0;autosize=1;align=center;verticalAlign=middle;points=[];fillColor=none;strokeColor=none;rounded=0;dashed=1;" parent="1" vertex="1">
          <mxGeometry x="215" y="380" width="90" height="20" as="geometry" />
        </mxCell>
        <mxCell id="SE9L8p6Hpd7SmOYz5tzZ-26" value="业务逻辑处理" style="text;html=1;resizable=0;autosize=1;align=center;verticalAlign=middle;points=[];fillColor=none;strokeColor=none;rounded=0;dashed=1;" parent="1" vertex="1">
          <mxGeometry x="355" y="380" width="90" height="20" as="geometry" />
        </mxCell>
        <mxCell id="SE9L8p6Hpd7SmOYz5tzZ-29" value="飞书" style="rounded=1;whiteSpace=wrap;html=1;fillColor=#e1d5e7;strokeColor=#9673a6;" parent="1" vertex="1">
          <mxGeometry x="550" y="585" width="70" height="30" as="geometry" />
        </mxCell>
        <mxCell id="SE9L8p6Hpd7SmOYz5tzZ-30" value="钉钉" style="rounded=1;whiteSpace=wrap;html=1;fillColor=#e1d5e7;strokeColor=#9673a6;" parent="1" vertex="1">
          <mxGeometry x="550" y="630" width="70" height="30" as="geometry" />
        </mxCell>
        <mxCell id="SE9L8p6Hpd7SmOYz5tzZ-31" value="支付宝" style="rounded=1;whiteSpace=wrap;html=1;fillColor=#e1d5e7;strokeColor=#9673a6;" parent="1" vertex="1">
          <mxGeometry x="550" y="680" width="70" height="30" as="geometry" />
        </mxCell>
        <mxCell id="SE9L8p6Hpd7SmOYz5tzZ-32" value="app" style="rounded=1;whiteSpace=wrap;html=1;fillColor=#e1d5e7;strokeColor=#9673a6;" parent="1" vertex="1">
          <mxGeometry x="550" y="730" width="70" height="30" as="geometry" />
        </mxCell>
        <mxCell id="SE9L8p6Hpd7SmOYz5tzZ-33" value="5g消息" style="rounded=1;whiteSpace=wrap;html=1;fillColor=#e1d5e7;strokeColor=#9673a6;" parent="1" vertex="1">
          <mxGeometry x="550" y="770" width="70" height="30" as="geometry" />
        </mxCell>
        <mxCell id="SE9L8p6Hpd7SmOYz5tzZ-41" value="DB" style="shape=cylinder3;whiteSpace=wrap;html=1;boundedLbl=1;backgroundOutline=1;size=15;fillColor=#f8cecc;strokeColor=#b85450;" parent="1" vertex="1">
          <mxGeometry x="205" y="750" width="110" height="60" as="geometry" />
        </mxCell>
        <mxCell id="SE9L8p6Hpd7SmOYz5tzZ-45" value="" style="edgeStyle=orthogonalEdgeStyle;shape=flexArrow;rounded=0;orthogonalLoop=1;jettySize=auto;html=1;" parent="1" source="SE9L8p6Hpd7SmOYz5tzZ-28" target="SE9L8p6Hpd7SmOYz5tzZ-41" edge="1">
          <mxGeometry relative="1" as="geometry" />
        </mxCell>
        <mxCell id="SE9L8p6Hpd7SmOYz5tzZ-28" value="" style="rounded=0;whiteSpace=wrap;html=1;dashed=1;fillColor=none;" parent="1" vertex="1">
          <mxGeometry x="65" y="342.5" width="390" height="355" as="geometry" />
        </mxCell>
        <mxCell id="SE9L8p6Hpd7SmOYz5tzZ-49" value="" style="edgeStyle=orthogonalEdgeStyle;shape=flexArrow;rounded=0;orthogonalLoop=1;jettySize=auto;html=1;" parent="1" source="SE9L8p6Hpd7SmOYz5tzZ-46" target="SE9L8p6Hpd7SmOYz5tzZ-48" edge="1">
          <mxGeometry relative="1" as="geometry" />
        </mxCell>
        <mxCell id="SE9L8p6Hpd7SmOYz5tzZ-46" value="" style="rounded=0;whiteSpace=wrap;html=1;fillColor=none;dashed=1;" parent="1" vertex="1">
          <mxGeometry x="50" y="330" width="420" height="490" as="geometry" />
        </mxCell>
        <mxCell id="SE9L8p6Hpd7SmOYz5tzZ-48" value="" style="rounded=0;whiteSpace=wrap;html=1;dashed=1;fillColor=none;" parent="1" vertex="1">
          <mxGeometry x="525" y="330" width="120" height="490" as="geometry" />
        </mxCell>
        <mxCell id="SE9L8p6Hpd7SmOYz5tzZ-50" value="UMS" style="text;html=1;resizable=0;autosize=1;align=center;verticalAlign=middle;points=[];fillColor=none;strokeColor=none;rounded=0;dashed=1;" parent="1" vertex="1">
          <mxGeometry x="240" y="840" width="40" height="20" as="geometry" />
        </mxCell>
        <mxCell id="SE9L8p6Hpd7SmOYz5tzZ-51" value="外部各个消息平台" style="text;html=1;resizable=0;autosize=1;align=center;verticalAlign=middle;points=[];fillColor=none;strokeColor=none;rounded=0;dashed=1;" parent="1" vertex="1">
          <mxGeometry x="535" y="840" width="110" height="20" as="geometry" />
        </mxCell>
      </root>
    </mxGraphModel>
  </diagram>
  <diagram id="l5ZkeRk8v-I_f3xSezyC" name="Client API">
    <mxGraphModel dx="1102" dy="614" grid="1" gridSize="10" guides="1" tooltips="1" connect="1" arrows="1" fold="1" page="1" pageScale="1" pageWidth="827" pageHeight="1169" math="0" shadow="0">
      <root>
        <mxCell id="0" />
        <mxCell id="1" parent="0" />
        <mxCell id="dC4MrfTGSF7yagkEoLjY-1" value="DataBase" style="shape=cylinder3;whiteSpace=wrap;html=1;boundedLbl=1;backgroundOutline=1;size=15;fillColor=#ffe6cc;strokeColor=#d79b00;" vertex="1" parent="1">
          <mxGeometry x="264" y="250" width="100" height="70" as="geometry" />
        </mxCell>
        <mxCell id="dC4MrfTGSF7yagkEoLjY-2" value="MediaVolume" style="shape=cylinder3;whiteSpace=wrap;html=1;boundedLbl=1;backgroundOutline=1;size=15;fillColor=#ffe6cc;strokeColor=#d79b00;" vertex="1" parent="1">
          <mxGeometry x="424" y="250" width="100" height="70" as="geometry" />
        </mxCell>
        <mxCell id="dC4MrfTGSF7yagkEoLjY-3" value="Web App" style="rounded=1;whiteSpace=wrap;html=1;fillColor=#a0522d;fontColor=#ffffff;strokeColor=#6D1F00;" vertex="1" parent="1">
          <mxGeometry x="264" y="360" width="120" height="60" as="geometry" />
        </mxCell>
        <mxCell id="dC4MrfTGSF7yagkEoLjY-4" style="edgeStyle=orthogonalEdgeStyle;rounded=0;orthogonalLoop=1;jettySize=auto;html=1;exitX=0.5;exitY=1;exitDx=0;exitDy=0;entryX=1;entryY=0.5;entryDx=0;entryDy=0;" edge="1" parent="1" source="dC4MrfTGSF7yagkEoLjY-6" target="dC4MrfTGSF7yagkEoLjY-10">
          <mxGeometry relative="1" as="geometry" />
        </mxCell>
        <mxCell id="dC4MrfTGSF7yagkEoLjY-5" value="HTTPS" style="edgeLabel;html=1;align=center;verticalAlign=middle;resizable=0;points=[];" vertex="1" connectable="0" parent="dC4MrfTGSF7yagkEoLjY-4">
          <mxGeometry x="0.1238" y="-1" relative="1" as="geometry">
            <mxPoint x="1" as="offset" />
          </mxGeometry>
        </mxCell>
        <mxCell id="dC4MrfTGSF7yagkEoLjY-6" value="Core App" style="rounded=1;whiteSpace=wrap;html=1;fillColor=#a0522d;fontColor=#ffffff;strokeColor=#6D1F00;" vertex="1" parent="1">
          <mxGeometry x="424" y="360" width="120" height="60" as="geometry" />
        </mxCell>
        <mxCell id="dC4MrfTGSF7yagkEoLjY-7" value="UMS Sender" style="rounded=1;whiteSpace=wrap;html=1;fillColor=#e1d5e7;strokeColor=#9673a6;" vertex="1" parent="1">
          <mxGeometry x="40" y="355" width="90" height="65" as="geometry" />
        </mxCell>
        <mxCell id="dC4MrfTGSF7yagkEoLjY-8" value="" style="shape=flexArrow;endArrow=classic;startArrow=classic;html=1;rounded=0;" edge="1" parent="1">
          <mxGeometry width="100" height="100" relative="1" as="geometry">
            <mxPoint x="144" y="389.5" as="sourcePoint" />
            <mxPoint x="264" y="390" as="targetPoint" />
          </mxGeometry>
        </mxCell>
        <mxCell id="dC4MrfTGSF7yagkEoLjY-9" value="HTTPS" style="edgeLabel;html=1;align=center;verticalAlign=middle;resizable=0;points=[];" vertex="1" connectable="0" parent="dC4MrfTGSF7yagkEoLjY-8">
          <mxGeometry x="-0.2666" relative="1" as="geometry">
            <mxPoint x="12" as="offset" />
          </mxGeometry>
        </mxCell>
        <mxCell id="dC4MrfTGSF7yagkEoLjY-10" value="UMS Callback" style="rounded=1;whiteSpace=wrap;html=1;fillColor=#e1d5e7;strokeColor=#9673a6;" vertex="1" parent="1">
          <mxGeometry x="40" y="490" width="90" height="65" as="geometry" />
        </mxCell>
        <mxCell id="dC4MrfTGSF7yagkEoLjY-11" value="" style="rounded=1;whiteSpace=wrap;html=1;dashed=1;fillColor=none;" vertex="1" parent="1">
          <mxGeometry x="240" y="190" width="320" height="300" as="geometry" />
        </mxCell>
        <mxCell id="dC4MrfTGSF7yagkEoLjY-12" value="Whatsapp Business API&lt;br&gt;Client" style="text;html=1;resizable=0;autosize=1;align=center;verticalAlign=middle;points=[];fillColor=none;strokeColor=none;rounded=0;dashed=1;" vertex="1" parent="1">
          <mxGeometry x="330" y="205" width="140" height="30" as="geometry" />
        </mxCell>
        <mxCell id="dC4MrfTGSF7yagkEoLjY-13" value="whatsapp&lt;br&gt;Server" style="ellipse;shape=cloud;whiteSpace=wrap;html=1;dashed=1;fillColor=#dae8fc;strokeColor=#6c8ebf;" vertex="1" parent="1">
          <mxGeometry x="670" y="300" width="120" height="80" as="geometry" />
        </mxCell>
        <mxCell id="dC4MrfTGSF7yagkEoLjY-14" value="" style="endArrow=classic;startArrow=classic;html=1;rounded=0;" edge="1" parent="1">
          <mxGeometry width="50" height="50" relative="1" as="geometry">
            <mxPoint x="580" y="339.5" as="sourcePoint" />
            <mxPoint x="660" y="339.5" as="targetPoint" />
          </mxGeometry>
        </mxCell>
        <mxCell id="dC4MrfTGSF7yagkEoLjY-15" value="Send and Recv&lt;br&gt;message" style="text;html=1;resizable=0;autosize=1;align=center;verticalAlign=middle;points=[];fillColor=none;strokeColor=none;rounded=0;dashed=1;" vertex="1" parent="1">
          <mxGeometry x="570" y="350" width="100" height="30" as="geometry" />
        </mxCell>
      </root>
    </mxGraphModel>
  </diagram>
  <diagram id="O_aK3qxJGqhmf6K8aK5H" name="Cloud API">
    <mxGraphModel dx="1102" dy="614" grid="1" gridSize="10" guides="1" tooltips="1" connect="1" arrows="1" fold="1" page="1" pageScale="1" pageWidth="827" pageHeight="1169" math="0" shadow="0">
      <root>
        <mxCell id="0" />
        <mxCell id="1" parent="0" />
        <mxCell id="b2CmZLmNywulzdfRS1vw-1" value="Whatsapp&lt;br&gt;Cloud API" style="rounded=1;whiteSpace=wrap;html=1;fillColor=#a0522d;fontColor=#ffffff;strokeColor=#6D1F00;" vertex="1" parent="1">
          <mxGeometry x="250" y="357.5" width="120" height="60" as="geometry" />
        </mxCell>
        <mxCell id="b2CmZLmNywulzdfRS1vw-2" value="UMS Sender" style="rounded=1;whiteSpace=wrap;html=1;fillColor=#e1d5e7;strokeColor=#9673a6;" vertex="1" parent="1">
          <mxGeometry x="40" y="355" width="90" height="65" as="geometry" />
        </mxCell>
        <mxCell id="b2CmZLmNywulzdfRS1vw-3" value="UMS Callback" style="rounded=1;whiteSpace=wrap;html=1;fillColor=#e1d5e7;strokeColor=#9673a6;" vertex="1" parent="1">
          <mxGeometry x="40" y="480" width="90" height="65" as="geometry" />
        </mxCell>
        <mxCell id="b2CmZLmNywulzdfRS1vw-4" value="whatsapp&lt;br&gt;Server" style="ellipse;shape=cloud;whiteSpace=wrap;html=1;dashed=1;fillColor=#dae8fc;strokeColor=#6c8ebf;" vertex="1" parent="1">
          <mxGeometry x="470" y="347.5" width="120" height="80" as="geometry" />
        </mxCell>
        <mxCell id="b2CmZLmNywulzdfRS1vw-5" value="" style="endArrow=classic;startArrow=classic;html=1;rounded=0;" edge="1" parent="1">
          <mxGeometry width="50" height="50" relative="1" as="geometry">
            <mxPoint x="390" y="377" as="sourcePoint" />
            <mxPoint x="470" y="377" as="targetPoint" />
          </mxGeometry>
        </mxCell>
        <mxCell id="b2CmZLmNywulzdfRS1vw-6" value="Send and Recv&lt;br&gt;message" style="text;html=1;resizable=0;autosize=1;align=center;verticalAlign=middle;points=[];fillColor=none;strokeColor=none;rounded=0;dashed=1;" vertex="1" parent="1">
          <mxGeometry x="380" y="387.5" width="100" height="30" as="geometry" />
        </mxCell>
        <mxCell id="b2CmZLmNywulzdfRS1vw-7" value="" style="endArrow=classic;html=1;rounded=0;" edge="1" parent="1">
          <mxGeometry width="50" height="50" relative="1" as="geometry">
            <mxPoint x="150" y="375.5" as="sourcePoint" />
            <mxPoint x="230" y="375.5" as="targetPoint" />
          </mxGeometry>
        </mxCell>
        <mxCell id="b2CmZLmNywulzdfRS1vw-8" value="" style="endArrow=classic;html=1;rounded=0;" edge="1" parent="1">
          <mxGeometry width="50" height="50" relative="1" as="geometry">
            <mxPoint x="300" y="430" as="sourcePoint" />
            <mxPoint x="150" y="520" as="targetPoint" />
          </mxGeometry>
        </mxCell>
        <mxCell id="b2CmZLmNywulzdfRS1vw-9" value="" style="endArrow=classic;html=1;rounded=0;" edge="1" parent="1">
          <mxGeometry width="50" height="50" relative="1" as="geometry">
            <mxPoint x="225" y="407" as="sourcePoint" />
            <mxPoint x="145" y="407" as="targetPoint" />
          </mxGeometry>
        </mxCell>
        <mxCell id="b2CmZLmNywulzdfRS1vw-10" value="HTTPS" style="text;html=1;align=center;verticalAlign=middle;resizable=0;points=[];autosize=1;strokeColor=none;fillColor=none;" vertex="1" parent="1">
          <mxGeometry x="155" y="380" width="50" height="20" as="geometry" />
        </mxCell>
        <mxCell id="b2CmZLmNywulzdfRS1vw-11" value="HTTPS" style="text;html=1;resizable=0;autosize=1;align=center;verticalAlign=middle;points=[];fillColor=none;strokeColor=none;rounded=0;" vertex="1" parent="1">
          <mxGeometry x="185" y="460" width="50" height="20" as="geometry" />
        </mxCell>
      </root>
    </mxGraphModel>
  </diagram>
</mxfile>
